<svg id="visual" viewBox="0 0 900 300" width="900" height="300" preserveAspectRatio="none" xmlns="http://www.w3.org/2000/svg" xmlns:xlink="http://www.w3.org/1999/xlink" version="1.1"><path d="M0 207L21.5 213.5C43 220 86 233 128.8 233.3C171.7 233.7 214.3 221.3 257.2 218.5C300 215.7 343 222.3 385.8 234.7C428.7 247 471.3 265 514.2 258.7C557 252.3 600 221.7 642.8 214.3C685.7 207 728.3 223 771.2 223.2C814 223.3 857 207.7 878.5 199.8L900 192L900 301L878.5 301C857 301 814 301 771.2 301C728.3 301 685.7 301 642.8 301C600 301 557 301 514.2 301C471.3 301 428.7 301 385.8 301C343 301 300 301 257.2 301C214.3 301 171.7 301 128.8 301C86 301 43 301 21.5 301L0 301Z" fill="#f7f7f7" stroke-linecap="round" stroke-linejoin="miter"></path></svg>